<svg width="15" height="15" viewBox="0 0 15 15" fill="none" xmlns="http://www.w3.org/2000/svg">
<g clip-path="url(#clip0_355_1037)">
<path d="M6.83607 13.7545C7.75227 13.7545 8.61986 13.5526 9.39759 13.1909C10.2067 12.8148 10.9211 12.2649 11.4952 11.5888C11.5768 11.4923 11.6994 11.451 11.8154 11.4708L13.8307 11.7469L12.6872 9.82432C12.6286 9.7261 12.6233 9.60931 12.6629 9.51048C12.7647 9.20143 12.8434 8.88099 12.8967 8.55219C12.9488 8.22756 12.9766 7.88977 12.9766 7.54179C12.9766 5.82591 12.2895 4.27348 11.1786 3.14929C10.0677 2.0251 8.53237 1.32976 6.83737 1.32976C5.14177 1.32976 3.60768 2.02513 2.49677 3.14929C1.38586 4.27348 0.698738 5.82653 0.698738 7.54179C0.698738 9.25767 1.38589 10.8101 2.49677 11.9343C3.60768 13.0585 5.14298 13.7538 6.83737 13.7538L6.83607 13.7545ZM4.00698 10.2628C3.81463 10.2628 3.65897 10.1053 3.65897 9.91059C3.65897 9.71593 3.81462 9.55841 4.00698 9.55841H9.66517C9.85751 9.55841 10.0132 9.71593 10.0132 9.91059C10.0132 10.1053 9.85753 10.2628 9.66517 10.2628H4.00698ZM4.00698 7.89463C3.81463 7.89463 3.65897 7.73712 3.65897 7.54246C3.65897 7.34781 3.81462 7.19028 4.00698 7.19028H9.66517C9.85751 7.19028 10.0132 7.34779 10.0132 7.54246C10.0132 7.73711 9.85753 7.89463 9.66517 7.89463H4.00698ZM5.42271 5.52589C5.23036 5.52589 5.0747 5.36838 5.0747 5.17371C5.0747 4.97906 5.23035 4.82154 5.42271 4.82154H8.24998C8.44233 4.82154 8.598 4.97905 8.598 5.17371C8.598 5.36836 8.44235 5.52589 8.24998 5.52589H5.42271ZM9.6865 13.8301C8.81765 14.2343 7.85241 14.4595 6.83665 14.4595C4.94923 14.4595 3.24059 13.6851 2.00362 12.4333C0.766635 11.1816 0.00195312 9.45251 0.00195312 7.54252C0.00195312 5.63253 0.767226 3.90346 2.00362 2.6517C3.2406 1.39993 4.94923 0.625488 6.83665 0.625488C8.72407 0.625488 10.4327 1.39991 11.6697 2.6517C12.9067 3.90348 13.6713 5.63253 13.6713 7.54252C13.6713 7.92105 13.6406 8.29658 13.5808 8.66551C13.5293 8.98414 13.4565 9.2956 13.363 9.59865L14.7988 12.0129L14.7982 12.0135C14.8379 12.08 14.8562 12.1591 14.845 12.2417C14.8196 12.434 14.6444 12.5687 14.455 12.543L11.8957 12.192C11.2796 12.8778 10.5291 13.4384 9.68512 13.8308L9.6865 13.8301ZM11.8154 11.4714C11.8758 11.4816 11.935 11.508 11.9847 11.5511L11.8154 11.4714Z" fill="#666666"/>
</g>
<defs>
<clipPath id="clip0_355_1037">
<rect width="14.9373" height="14.0227" fill="white" transform="translate(0 0.48864)"/>
</clipPath>
</defs>
</svg>
