<svg width="17" height="17" viewBox="0 0 17 17" fill="none" xmlns="http://www.w3.org/2000/svg">
<g clip-path="url(#clip0_355_1041)">
<path d="M14.3856 2.87694C13.5922 2.13027 12.6761 1.5525 11.6372 1.14361C10.5984 0.734717 9.51224 0.530273 8.37891 0.530273C7.24557 0.530273 6.15946 0.734717 5.12057 1.14361C4.08168 1.5525 3.16557 2.13027 2.37224 2.87694C1.57891 3.62361 0.965017 4.48583 0.530573 5.46361C0.0961285 6.44138 -0.121094 7.46361 -0.121094 8.53027C-0.121094 9.59694 0.0961285 10.6192 0.530573 11.5969C0.965017 12.5747 1.57891 13.4369 2.37224 14.1836C3.16557 14.9303 4.08168 15.5081 5.12057 15.9169C6.15946 16.3258 7.24557 16.5303 8.37891 16.5303C9.51224 16.5303 10.5984 16.3258 11.6372 15.9169C12.6761 15.5081 13.5922 14.9303 14.3856 14.1836C15.1789 13.4369 15.7928 12.5747 16.2272 11.5969C16.6617 10.6192 16.8789 9.59694 16.8789 8.53027C16.8789 7.46361 16.6617 6.44138 16.2272 5.46361C15.7928 4.48583 15.1789 3.62361 14.3856 2.87694ZM3.56224 13.9703C3.67557 13.2236 3.95891 12.5392 4.41224 11.9169C4.86557 11.2947 5.44168 10.8058 6.14057 10.4503C6.83946 10.0947 7.58557 9.91694 8.37891 9.91694C9.02113 9.91694 9.63502 10.0325 10.2206 10.2636C10.8061 10.4947 11.3256 10.8236 11.7789 11.2503C12.5722 11.9969 13.0445 12.9036 13.1956 13.9703C12.5156 14.4681 11.7695 14.8592 10.9572 15.1436C10.145 15.4281 9.28557 15.5703 8.37891 15.5703C7.47224 15.5703 6.6128 15.4281 5.80057 15.1436C4.98835 14.8592 4.24224 14.4681 3.56224 13.9703ZM8.37891 8.95694C7.66113 8.95694 7.04724 8.71694 6.53724 8.23694C6.02724 7.75694 5.77224 7.18805 5.77224 6.53027C5.77224 5.8725 6.02724 5.30361 6.53724 4.82361C7.04724 4.34361 7.66113 4.10361 8.37891 4.10361C9.09668 4.10361 9.71057 4.34361 10.2206 4.82361C10.7306 5.30361 10.9856 5.8725 10.9856 6.53027C10.9856 7.18805 10.7306 7.75694 10.2206 8.23694C9.71057 8.71694 9.09668 8.95694 8.37891 8.95694ZM14.0456 13.1703C13.7811 12.1747 13.2711 11.3214 12.5156 10.6103C11.9111 10.0058 11.1934 9.57916 10.3622 9.33027C10.8534 9.01027 11.2406 8.60138 11.5239 8.10361C11.8072 7.60583 11.9489 7.06361 11.9489 6.47694C11.9489 5.89027 11.7884 5.33916 11.4672 4.82361C11.1461 4.30805 10.7117 3.89916 10.1639 3.59694C9.61613 3.29472 9.02113 3.14361 8.37891 3.14361C7.73668 3.14361 7.14168 3.29472 6.59391 3.59694C6.04613 3.89916 5.61168 4.30805 5.29057 4.82361C4.96946 5.33916 4.80891 5.89027 4.80891 6.47694C4.80891 7.06361 4.95057 7.60583 5.23391 8.10361C5.51724 8.60138 5.90446 9.01027 6.39557 9.33027C5.64002 9.57916 4.97891 9.9525 4.41224 10.4503C3.54335 11.1969 2.97668 12.1036 2.71224 13.1703C2.14557 12.5303 1.70168 11.8103 1.38057 11.0103C1.05946 10.2103 0.898906 9.38361 0.898906 8.53027C0.898906 7.25027 1.22946 6.06805 1.89057 4.98361C2.55168 3.89916 3.45835 3.04583 4.61057 2.42361C5.7628 1.80138 7.01891 1.49027 8.37891 1.49027C9.73891 1.49027 10.995 1.80138 12.1472 2.42361C13.2995 3.04583 14.2061 3.89916 14.8672 4.98361C15.5284 6.06805 15.8589 7.25027 15.8589 8.53027C15.8589 9.38361 15.6984 10.2103 15.3772 11.0103C15.0561 11.8103 14.6122 12.5303 14.0456 13.1703Z" fill="#666666"/>
</g>
<defs>
<clipPath id="clip0_355_1041">
<rect width="17" height="16" fill="white" transform="matrix(1 0 0 -1 0 16.5)"/>
</clipPath>
</defs>
</svg>
