<svg width="17" height="16" viewBox="0 0 17 16" fill="none" xmlns="http://www.w3.org/2000/svg">
<g clip-path="url(#clip0_355_1955)">
<path d="M14.1856 1.22667H12.7456V0.48C12.7456 0.337777 12.7012 0.222221 12.6123 0.133333C12.5234 0.0444441 12.4078 0 12.2656 0C12.1234 0 12.0078 0.0444441 11.919 0.133333C11.8301 0.222221 11.7856 0.337777 11.7856 0.48V1.22667H4.74563V0.48C4.74563 0.337777 4.70118 0.222221 4.61229 0.133333C4.5234 0.0444441 4.40785 0 4.26562 0C4.1234 0 4.00785 0.0444441 3.91896 0.133333C3.83007 0.222221 3.78562 0.337777 3.78562 0.48V1.22667H2.34563C1.77674 1.22667 1.28785 1.43111 0.878958 1.84C0.470069 2.24889 0.265625 2.73778 0.265625 3.30667V13.92C0.265625 14.4889 0.470069 14.9778 0.878958 15.3867C1.28785 15.7956 1.77674 16 2.34563 16H14.1856C14.7545 16 15.2434 15.7956 15.6523 15.3867C16.0612 14.9778 16.2656 14.4889 16.2656 13.92V3.30667C16.2656 2.73778 16.0612 2.24889 15.6523 1.84C15.2434 1.43111 14.7545 1.22667 14.1856 1.22667ZM2.34563 2.24H3.78562V2.77333C3.78562 2.88 3.83007 2.98667 3.91896 3.09333C4.00785 3.2 4.1234 3.25333 4.26562 3.25333C4.40785 3.25333 4.5234 3.2 4.61229 3.09333C4.70118 2.98667 4.74563 2.88 4.74563 2.77333V2.24H11.7856V2.77333C11.7856 2.88 11.8301 2.98667 11.919 3.09333C12.0078 3.2 12.1234 3.25333 12.2656 3.25333C12.4078 3.25333 12.5234 3.2 12.6123 3.09333C12.7012 2.98667 12.7456 2.88 12.7456 2.77333V2.24H14.1856C14.5056 2.24 14.7634 2.34667 14.959 2.56C15.1545 2.77333 15.2523 3.02222 15.2523 3.30667V4.48H1.27896V3.30667C1.27896 3.02222 1.37674 2.77333 1.57229 2.56C1.76785 2.34667 2.02562 2.24 2.34563 2.24ZM14.1856 14.9867H2.34563C2.02562 14.9867 1.76785 14.8889 1.57229 14.6933C1.37674 14.4978 1.27896 14.24 1.27896 13.92V5.49333H15.2523V13.92C15.2523 14.24 15.1545 14.4978 14.959 14.6933C14.7634 14.8889 14.5056 14.9867 14.1856 14.9867Z" fill="#666666"/>
</g>
<defs>
<clipPath id="clip0_355_1955">
<rect width="16.53" height="16" fill="white" transform="matrix(1 0 0 -1 0 16)"/>
</clipPath>
</defs>
</svg>
