<svg width="17" height="17" viewBox="0 0 17 17" fill="none" xmlns="http://www.w3.org/2000/svg">
<g clip-path="url(#clip0_355_1033)">
<path d="M6.99538 9.21112L10.1661 11.5941C10.2793 11.7076 10.4114 11.7549 10.5624 11.7359C10.7134 11.717 10.8266 11.6414 10.9021 11.509C10.9776 11.3766 11.0059 11.2442 10.9871 11.1118C10.9682 10.9794 10.9021 10.8565 10.7889 10.743L7.84467 8.53027V3.99127C7.84467 3.83997 7.79749 3.71704 7.70312 3.62247C7.60876 3.52791 7.48608 3.48063 7.3351 3.48063C7.18411 3.48063 7.052 3.52791 6.93876 3.62247C6.82552 3.71704 6.7689 3.83997 6.7689 3.99127V8.81396C6.7689 9.00309 6.84439 9.13547 6.99538 9.21112ZM7.56157 0.530274C6.31595 0.530274 5.12694 0.823419 3.99455 1.40971C2.86216 1.99599 1.9185 2.79032 1.16357 3.79269C0.408647 4.79505 -0.0631825 5.93926 -0.251914 7.22531L-0.478392 6.88488C-0.553885 6.77141 -0.667124 6.70521 -0.818109 6.6863C-0.969094 6.66739 -1.10121 6.69576 -1.21445 6.77141C-1.32768 6.84706 -1.40318 6.96053 -1.44092 7.11183C-1.47867 7.26313 -1.44092 7.39552 -1.32768 7.509L-0.308534 9.09765C-0.195295 9.24895 -0.0631825 9.3246 0.0878028 9.3246H0.144422C0.295408 9.3246 0.42752 9.26786 0.540759 9.15439L1.84301 7.84942C1.95625 7.73595 2.01287 7.60356 2.01287 7.45226C2.01287 7.30096 1.95625 7.17803 1.84301 7.08347C1.72977 6.9889 1.60709 6.94162 1.47498 6.94162C1.34287 6.94162 1.22019 6.99836 1.10695 7.11183L0.767237 7.39552C0.955968 6.18512 1.44667 5.10711 2.23934 4.16148C3.03202 3.21585 3.99455 2.51609 5.12694 2.06219C6.25933 1.60829 7.44834 1.48536 8.69396 1.69339C9.93959 1.90143 11.0342 2.39316 11.9779 3.16857C12.9216 3.94398 13.6104 4.90852 14.0445 6.06219C14.4786 7.21585 14.6013 8.4168 14.4125 9.66503C14.2238 10.762 13.8086 11.7454 13.1669 12.6154C12.5252 13.4854 11.7137 14.1757 10.7323 14.6863C9.75086 15.1969 8.71284 15.4523 7.61819 15.4523C6.52355 15.4523 5.49496 15.2159 4.53243 14.743C3.5699 14.2702 2.78666 13.5988 2.18272 12.7289C2.10723 12.6154 1.99399 12.5492 1.84301 12.5303C1.69202 12.5114 1.55991 12.5397 1.44667 12.6154C1.33343 12.691 1.25794 12.8045 1.22019 12.9558C1.18245 13.1071 1.22019 13.2395 1.33343 13.353C2.05061 14.3742 2.96596 15.1591 4.07948 15.7076C5.19299 16.256 6.35369 16.5303 7.56157 16.5303C9.03368 16.5303 10.3737 16.1709 11.5816 15.4523C12.7894 14.7336 13.752 13.7596 14.4692 12.5303C15.1863 11.301 15.5449 9.96763 15.5449 8.53027C15.5449 7.09292 15.1863 5.75959 14.4692 4.53027C13.752 3.30096 12.7894 2.32696 11.5816 1.60829C10.3737 0.889612 9.03368 0.530274 7.56157 0.530274Z" fill="#666666"/>
</g>
<defs>
<clipPath id="clip0_355_1033">
<rect width="17" height="16" fill="white" transform="matrix(1 0 0 -1 0 16.5)"/>
</clipPath>
</defs>
</svg>
